<svg xmlns="http://www.w3.org/2000/svg" version="1.1" xmlns:xlink="http://www.w3.org/1999/xlink" xmlns:svgjs="http://svgjs.dev/svgjs" viewBox="0 0 800 800" opacity="0.37">
    <defs>
        <linearGradient x1="50%" y1="0%" x2="50%" y2="100%" id="gggyrate-grad">
            <stop stop-color="hsl(105, 69%, 40%)" stop-opacity="1" offset="0%"></stop>
            <stop stop-color="hsl(332, 87%, 70%)" stop-opacity="1" offset="100%"></stop>
        </linearGradient>
    </defs>
    <g stroke-width="8" stroke="url(#gggyrate-grad)" fill="none">
        <path d="M399.9999694824219 -330.3470458984375L1032.5000098987637 34.8264901837897V765.1735623482441L399.9999694824219 1130.3470984304713L-232.50007093391997 765.1735623482441V34.8264901837897L399.9999694824219 -330.3470458984375Z " transform="rotate(483, 400, 400)" opacity="0.05"></path>
        <path d="M399.9999694824219 -298.59283447265625L1005.0000081415315 50.70359134512637V749.2964429806914L399.9999694824219 1098.592868798474L-205.00006917668776 749.2964429806914V50.70359134512637L399.9999694824219 -298.59283447265625Z " transform="rotate(462, 400, 400)" opacity="0.09"></path>
        <path d="M399.9999694824219 -266.838623046875L977.5000063842992 66.58069250646281V733.4193236131387L399.9999694824219 1066.8386391664765L-177.5000674194555 733.4193236131387V66.58069250646281L399.9999694824219 -266.838623046875Z " transform="rotate(441, 400, 400)" opacity="0.14"></path>
        <path d="M399.9999694824219 -235.08441162109375L950.000004627067 82.45779366779948V717.5422042455859L399.9999694824219 1035.0844095344792L-150.00006566222322 717.5422042455859V82.45779366779948L399.9999694824219 -235.08441162109375Z " transform="rotate(420, 400, 400)" opacity="0.18"></path>
        <path d="M399.9999694824219 -203.3302001953125L922.5000028698348 98.33489482913603V701.6650848780332L399.9999694824219 1003.3301799024816L-122.50006390499095 701.6650848780332V98.33489482913603L399.9999694824219 -203.3302001953125Z " transform="rotate(399, 400, 400)" opacity="0.22"></path>
        <path d="M399.9999694824219 -171.57598876953125L895.0000011126026 114.21199599047259V685.7879655104805L399.9999694824219 971.5759502704843L-95.00006214775874 685.7879655104805V114.21199599047259L399.9999694824219 -171.57598876953125Z " transform="rotate(378, 400, 400)" opacity="0.27"></path>
        <path d="M399.9999694824219 -139.82177734375L867.4999993553702 130.08909715180926V669.9108461429278L399.9999694824219 939.821720638487L-67.50006039052647 669.9108461429278V130.08909715180926L399.9999694824219 -139.82177734375Z " transform="rotate(357, 400, 400)" opacity="0.31"></path>
        <path d="M399.9999694824219 -108.0675048828125L839.999997598138 145.96625934830206V654.0337878105312L399.9999694824219 908.0675520416457L-40.0000586332942 654.0337878105312V145.96625934830206L399.9999694824219 -108.0675048828125Z " transform="rotate(336, 400, 400)" opacity="0.35"></path>
        <path d="M399.9999694824219 -76.31329345703125L812.4999958409057 161.84336050963867V638.1566684429785L399.9999694824219 876.3133224096484L-12.500056876061933 638.1566684429785V161.84336050963867L399.9999694824219 -76.31329345703125Z " transform="rotate(315, 400, 400)" opacity="0.40"></path>
        <path d="M399.9999694824219 -44.55908203125L784.9999940836733 177.72046167097528V622.2795490754258L399.9999694824219 844.5590927776511L14.99994488117028 622.2795490754258V177.72046167097528L399.9999694824219 -44.55908203125Z " transform="rotate(294, 400, 400)" opacity="0.44"></path>
        <path d="M400.0000305175781 -12.80487060546875L757.5000533615975 193.59756283231184V606.402429707873L400.0000305175781 812.8048631456536L42.5000076735588 606.402429707873V193.59756283231184L400.0000305175781 -12.80487060546875Z " transform="rotate(273, 400, 400)" opacity="0.48"></path>
        <path d="M400.0000305175781 18.9493408203125L730.0000516043651 209.4746639936484V590.5253103403203L400.0000305175781 781.0506335136562L70.00000943079107 590.5253103403203V209.4746639936484L400.0000305175781 18.9493408203125Z " transform="rotate(252, 400, 400)" opacity="0.53"></path>
        <path d="M400.0000305175781 50.703582763671875L702.5000498471329 225.35179567256318V574.6482214903457L400.0000305175781 749.296434399237L97.50001118802334 574.6482214903457V225.35179567256318L400.0000305175781 50.703582763671875Z " transform="rotate(231, 400, 400)" opacity="0.57"></path>
        <path d="M400.0000305175781 82.45779418945312L675.0000480899007 241.22889683389974V558.771102122793L400.0000305175781 717.5422047672396L125.00001294525555 558.771102122793V241.22889683389974L400.0000305175781 82.45779418945312Z " transform="rotate(210, 400, 400)" opacity="0.61"></path>
        <path d="M400.00001525878906 114.21200561523438L647.5000310738794 257.1059979952363V542.8939827552402L400.00001525878906 685.7879751352422L152.49999944369875 542.8939827552402V257.1059979952363L400.00001525878906 114.21200561523438Z " transform="rotate(189, 400, 400)" opacity="0.65"></path>
        <path d="M400 145.96624755859375L620.000014057858 272.98312967415103V527.0168939052655L400 654.0337760208229L179.99998594214196 527.0168939052655V272.98312967415103L400 145.96624755859375Z " transform="rotate(168, 400, 400)" opacity="0.70"></path>
        <path d="M400 177.720458984375L592.5000123006257 288.86023083548764V511.1397745377129L400 622.2795463888256L207.49998769937423 511.1397745377129V288.86023083548764L400 177.720458984375Z " transform="rotate(147, 400, 400)" opacity="0.74"></path>
        <path d="M400 209.47467041015625L565.0000105433935 304.7373319968242V495.2626551701601L400 590.525316756828L234.99998945660644 495.2626551701601V304.7373319968242L400 209.47467041015625Z " transform="rotate(126, 400, 400)" opacity="0.78"></path>
        <path d="M400 241.22891235351562L537.5000087861613 320.61446367573893V479.38556632018555L400 558.7711176424089L262.4999912138387 479.38556632018555V320.61446367573893L400 241.22891235351562Z " transform="rotate(105, 400, 400)" opacity="0.83"></path>
        <path d="M400 272.9831237792969L510.000007028929 336.49156483707554V463.50844695263277L400 527.0168880104114L289.999992971071 463.50844695263277V336.49156483707554L400 272.9831237792969Z " transform="rotate(84, 400, 400)" opacity="0.87"></path>
        <path d="M400 304.7373352050781L482.50000527169675 352.3686659984121V447.63132758508004L400 495.262658378414L317.49999472830325 447.63132758508004V352.3686659984121L400 304.7373352050781Z " transform="rotate(63, 400, 400)" opacity="0.91"></path>
        <path d="M400 336.49156188964844L455.00000351446454 368.2457824185378V431.7542234763164L400 463.5084440052057L344.99999648553546 431.7542234763164V368.2457824185378L400 336.49156188964844Z " transform="rotate(42, 400, 400)" opacity="0.96"></path>
        <path d="M400 368.2457733154297L427.50000175723227 384.1228835798743V415.87710410876366L400 431.75421437320836L372.49999824276773 415.87710410876366V384.1228835798743L400 368.2457733154297Z " transform="rotate(21, 400, 400)" opacity="1.00"></path>
    </g>
</svg>